<?xml version="1.0" standalone="no"?><!DOCTYPE svg PUBLIC "-//W3C//DTD SVG 1.1//EN" "http://www.w3.org/Graphics/SVG/1.1/DTD/svg11.dtd"><svg t="1685947230421" class="icon" viewBox="0 0 1024 1024" version="1.1" xmlns="http://www.w3.org/2000/svg" p-id="15766" xmlns:xlink="http://www.w3.org/1999/xlink" width="16" height="16"><path d="M807.082667 583.210667a35.84 35.84 0 0 0-35.797334 35.797333v203.904a18.56 18.56 0 0 1-18.602666 18.602667H185.685333a18.56 18.56 0 0 1-18.602666-18.602667V235.818667c0-10.325333 8.32-18.602667 18.602666-18.602667h254.634667a35.84 35.84 0 0 0 0-71.594667H185.813333a90.197333 90.197333 0 0 0-90.112 90.069334v587.093333c0 49.621333 40.405333 90.026667 90.112 90.026667h567.082667a90.197333 90.197333 0 0 0 90.112-90.112v-203.690667a36.053333 36.053333 0 0 0-35.925333-35.84z m-373.76-210.218667c-43.008 65.024-53.504 128.896-54.528 136.021333a35.84 35.84 0 0 0 35.413333 40.874667c17.578667 0 32.810667-13.226667 35.413333-30.378667 0.298667-2.389333 9.386667-56.405333 44.458667-108.501333 46.08-68.394667 115.413333-103.296 205.653333-103.594667 1.365333 0.085333 2.56 0.170667 3.584 0.170667a35.84 35.84 0 0 0 35.797334-35.797333v-42.069334l100.48 95.573334-100.608 83.797333v-34.176a35.84 35.84 0 0 0-71.594667 0v110.592a35.925333 35.925333 0 0 0 58.624 27.605333l190.08-158.293333a35.712 35.712 0 0 0 12.714667-26.325333 35.754667 35.754667 0 0 0-11.008-27.178667l-189.994667-180.906667a35.712 35.712 0 0 0-60.288 25.898667v90.88c-125.738667 10.496-196.693333 79.402667-234.24 135.808z" fill="#000000" opacity=".65" p-id="15767"></path></svg>