<?xml version="1.0" standalone="no"?><!DOCTYPE svg PUBLIC "-//W3C//DTD SVG 1.1//EN" "http://www.w3.org/Graphics/SVG/1.1/DTD/svg11.dtd"><svg t="1686502557235" class="icon" viewBox="0 0 1024 1024" version="1.1" xmlns="http://www.w3.org/2000/svg" p-id="2620" xmlns:xlink="http://www.w3.org/1999/xlink" width="200" height="200"><path d="M865.28 128H158.634667A30.72 30.72 0 0 0 128 158.72V865.365333c0 16.938667 13.781333 30.677333 30.72 30.634667l706.56 0.042667h0.085333a30.72 30.72 0 0 0 30.634667-30.72V158.72v-0.085333A30.634667 30.634667 0 0 0 865.28 128z m-38.357333 698.88H197.12V197.12h629.802667v629.76z" p-id="2621"></path><path d="M613.717333 541.056l0.896 0.298667v205.44a7.808 7.808 0 0 0 7.850667 7.552l47.317333-0.128a7.808 7.808 0 0 0 7.850667-7.552v-205.909334a102.357333 102.357333 0 0 0 0-194.474666V277.333333a7.808 7.808 0 0 0-7.850667-7.552h-47.317333a7.808 7.808 0 0 0-7.850667 7.552v68.352l-0.896 0.298667a102.4 102.4 0 0 0 0 195.072z m0.170667-114.517333c0.298667-0.64 0.682667-1.237333 0.981333-1.792l1.152-1.792a2.858667 2.858667 0 0 0 0.298667-0.469334c0.298667-0.469333 0.725333-1.28 0.981333-1.365333s0.256-0.384 0.256-0.384l1.365334-1.578667 0.298666-0.256 1.194667-1.194666 0.384-0.384 1.536-1.365334 1.706667-1.237333 0.469333-0.298667c0.512-0.298667 0.896-0.682667 1.365333-0.981333l0.384-0.298667 1.877334-1.066666c0.085333 0-0.085333 0.298667 0.384 0s0.981333-0.512 1.536-0.810667l0.597333-0.298667c0.682667-0.256 1.322667-0.554667 2.005333-0.768 0.682667-0.256 1.365333-0.512 2.090667-0.682666h0.554667c0.554667-0.170667 1.109333-0.341333 1.706666-0.384h0.469334a20.096 20.096 0 0 1 2.688-0.384L640 408.448a4.693333 4.693333 0 0 1 1.92 0.085333h2.858667a20.010667 20.010667 0 0 1 2.261333 0h0.597333a12.8 12.8 0 0 1 1.792 0.213334 19.370667 19.370667 0 0 1 2.688 0.384h0.469334a11.050667 11.050667 0 0 1 1.706666 0.384h0.597334c0.682667 0.170667 1.365333 0.426667 2.005333 0.682666 0.682667 0.213333 1.322667 0.512 2.005333 0.768l0.597334 0.298667a26.666667 26.666667 0 0 1 1.536 0.810667h0.384c0.64 0.341333 1.322667 0.682667 1.92 1.066666l0.384 0.298667a10.026667 10.026667 0 0 1 1.365333 0.981333l0.469333 0.298667a22.058667 22.058667 0 0 1 3.242667 2.602667l0.384 0.384 1.194667 1.194666 0.298666 0.256 1.365334 1.578667c0.256 0.085333 0.256 0.384 0.256 0.384 0.384 0.426667 0.725333 0.853333 0.981333 1.365333l0.298667 0.469334 1.152 1.792a35.328 35.328 0 0 1 0.981333 34.688c-0.298667 0.64-0.682667 1.237333-0.981333 1.792l-1.152 1.792-0.298667 0.469333c-0.298667 0.469333-0.725333 1.28-0.981333 1.365333s0.256-0.213333-0.256 0.384l-1.365334 1.536-0.298666 0.298667-1.194667 1.194667-0.384 0.384-1.536 1.365333a24.874667 24.874667 0 0 1-1.706667 1.237333l-0.469333 0.298667c-0.512 0.298667-0.896 0.682667-1.365333 0.981333l-0.384 0.298667-1.92 1.066667c-0.085333 0 0.085333-0.298667-0.384 0s-0.981333 0.512-1.536 0.810666l-0.597334 0.298667c-0.682667 0.256-1.322667 0.554667-2.005333 0.768a15.829333 15.829333 0 0 1-2.005333 0.682667h-0.597334a11.050667 11.050667 0 0 1-1.706666 0.384h-0.469334a19.370667 19.370667 0 0 1-2.688 0.384c-0.597333 0.213333-1.194667 0.213333-1.792 0.213333h-2.858666a20.010667 20.010667 0 0 1-2.261334 0h-0.597333a12.245333 12.245333 0 0 1-1.749333-0.213333 20.096 20.096 0 0 1-2.688-0.384h-0.469334a11.050667 11.050667 0 0 1-1.706666-0.384h-0.554667c-0.725333-0.170667-1.408-0.426667-2.090667-0.682667-0.725333-0.213333-1.322667-0.512-2.005333-0.768l-0.597333-0.298667-1.536-0.810666h-0.384l-1.877334-1.066667-0.384-0.298667c-0.469333-0.298667-0.938667-0.597333-1.365333-0.981333l-0.469333-0.298667a22.058667 22.058667 0 0 1-3.242667-2.602666l-0.384-0.384-1.194667-1.194667-0.298666-0.298667c-0.469333-0.469333-1.109333-1.450667-1.365334-1.536s-0.256-0.384-0.256-0.384c-0.384-0.426667-0.682667-0.896-0.981333-1.365333a2.858667 2.858667 0 0 0-0.298667-0.469333l-1.152-1.792a35.84 35.84 0 0 1-0.981333-34.688zM346.453333 677.717333v69.077334a7.808 7.808 0 0 0 7.850667 7.552l47.274667-0.213334c4.266667 0.085333 7.765333-3.285333 7.893333-7.552v-68.266666l0.896-0.298667a102.4 102.4 0 0 0 0-195.029333l-0.896-0.298667V277.333333a7.765333 7.765333 0 0 0-7.893333-7.552H354.304a7.808 7.808 0 0 0-7.850667 7.552v205.952a102.4 102.4 0 0 0 0 194.432z m1.237334-113.962666c0.298667-0.64 0.682667-1.237333 0.981333-1.792l1.194667-1.792 0.256-0.469334c0.298667-0.512 0.682667-0.896 0.981333-1.365333l0.298667-0.384a26.026667 26.026667 0 0 1 1.365333-1.578667l0.298667-0.298666 1.152-1.152 0.384-0.384a26.026667 26.026667 0 0 1 1.578666-1.365334l1.664-1.28 0.469334-0.256c0.469333-0.298667 0.853333-0.682667 1.365333-0.981333l0.384-0.298667 1.834667-1.066666c0.085333-0.213333-0.128 0.085333 0.384-0.213334s0.981333-0.469333 1.578666-0.768l0.554667-0.298666a16.213333 16.213333 0 0 1 2.005333-0.768c0.682667-0.256 1.365333-0.512 2.090667-0.682667a2.474667 2.474667 0 0 0 0.597333-0.213333l1.621334-0.384H371.2a19.370667 19.370667 0 0 1 2.645333-0.384l-0.042666-0.128a3.2 3.2 0 0 1 1.408-0.042667h2.858666a20.736 20.736 0 0 1 2.304 0h0.597334a8.533333 8.533333 0 0 1 1.792 0.213333 19.370667 19.370667 0 0 1 2.645333 0.384h0.512l1.621333 0.384 0.597334 0.213334c1.450667 0.426667 2.858667 0.896 4.266666 1.450666l0.554667 0.298667a10.794667 10.794667 0 0 1 1.578667 0.768 16.341333 16.341333 0 0 1 2.261333 1.28l0.64 0.256a5.290667 5.290667 0 0 1 1.365333 0.981333l0.512 0.256 1.621334 1.28c0.512 0.384 1.066667 0.896 1.578666 1.365334l0.384 0.384 1.152 1.152 0.298667 0.298666a24.149333 24.149333 0 0 1 1.365333 1.578667l0.298667 0.384c0.384 0.426667 0.725333 0.853333 0.981333 1.365333l0.256 0.469334 1.194667 1.792a35.584 35.584 0 0 1 0.981333 34.688c-0.298667 0.64-0.682667 1.194667-0.981333 1.792l-1.194667 1.792c-0.256 0.213333 0.042667 0.042667-0.256 0.512s-0.682667 0.853333-0.981333 1.365333l-0.298667 0.384a11.690667 11.690667 0 0 1-1.365333 1.536l-0.298667 0.298667-1.152 1.194666-0.384 0.384-1.578666 1.365334a20.48 20.48 0 0 1-1.621334 1.237333l-0.512 0.298667-1.365333 0.981333c-0.085333 0.085333 0.213333-0.085333-0.384 0.298667l-1.877333 1.066666h-0.384l-1.578667 0.810667-0.554667 0.256a16.426667 16.426667 0 0 1-2.005333 0.810667l-2.090667 0.682666h-0.597333a9.984 9.984 0 0 1-1.621333 0.384c-0.213333 0 0.213333-0.170667-0.512 0s-1.493333 0.384-2.176 0.384a0.853333 0.853333 0 0 0-0.469334 0h-4.693333a10.026667 10.026667 0 0 1-2.261333 0h-0.597334a12.544 12.544 0 0 1-2.261333 0l-2.176-0.384c-0.213333 0 0.042667 0.085333-0.512 0s-1.152-0.384-1.621333-0.384h-0.597334l-2.090666-0.682666a16.426667 16.426667 0 0 1-2.005334-0.810667l-0.554666-0.256a18.304 18.304 0 0 1-1.578667-0.810667h-0.384l-1.834667-1.066666c-0.085333-0.298667-0.384-0.298667-0.384-0.298667a6.144 6.144 0 0 1-1.365333-0.981333 2.858667 2.858667 0 0 1-0.469333-0.298667c-0.597333-0.384-1.109333-0.810667-1.664-1.237333l-1.578667-1.365334-0.384-0.384-1.152-1.194666-0.298667-0.298667a22.058667 22.058667 0 0 1-1.365333-1.536l-0.298667-0.384c-0.384-0.426667-0.682667-0.896-0.981333-1.365333-0.256-0.213333-0.256-0.298667-0.256-0.512l-1.194667-1.792-0.981333-1.792a35.669333 35.669333 0 0 1 0.042667-32.896z" p-id="2622"></path></svg>