<?xml version="1.0" standalone="no"?><!DOCTYPE svg PUBLIC "-//W3C//DTD SVG 1.1//EN" "http://www.w3.org/Graphics/SVG/1.1/DTD/svg11.dtd"><svg t="1686499104341" class="icon" viewBox="0 0 1024 1024" version="1.1" xmlns="http://www.w3.org/2000/svg" p-id="12720" xmlns:xlink="http://www.w3.org/1999/xlink" width="200" height="200"><path d="M404.5 1.8L0.1 242.8l409.4 241 409.4-241-414.4-241zM83.1 242.6L404.8 50.9 735.1 243 409.5 434.7 83.1 242.6zM0.1 750.1l377.4 222.6V510.8L0.1 288.3v461.8z m42.3-387.8L335.2 535v363.6L42.4 725.9V362.3z" fill="#303030" p-id="12721"></path><path d="M265.4 582.1l-153.2-90.6V528l153.2 90.6zM220.6 628.6l-81.3-48.3v28.4l81.3 48.3z" fill="#303030" p-id="12722"></path><path d="M483.4 898.5V535l292.8-172.7v219.4c2.9-0.1 5.9-0.4 8.8-0.4 11.4 0 22.5 1.1 33.5 2.9V288.3L441.1 510.8v461.8l162.5-95.8c-6.5-12.8-11.6-26.2-15.2-40.2l-105 61.9z" fill="#303030" p-id="12723"></path><path d="M662.9 662.7c30.5-30.5 70.5-48 113.3-50.1v-30.8c-51 2.2-98.7 22.8-135.1 59.2-38.4 38.4-59.6 89.5-59.6 143.9 0 17.8 2.5 35.1 6.9 51.9l27.7-16.3c-2.4-11.6-3.7-23.5-3.7-35.6-0.1-46.3 17.9-89.6 50.5-122.2z" fill="#303030" p-id="12724"></path><path d="M616 820.3l-27.7 16.3c3.6 13.9 8.7 27.4 15.2 40.2l26.6-15.7c-6.3-12.9-11.1-26.6-14.1-40.8zM776.2 581.7v30.8c2.9-0.1 5.9-0.4 8.8-0.4 11.4 0 22.6 1.1 33.5 3.3v-31.1c-11-1.8-22.1-2.9-33.5-2.9-3-0.1-5.9 0.2-8.8 0.3zM785 932.1c-39.8 0-77.2-15.5-105.3-43.6-58-58-58-152.5 0-210.6 58.1-58 152.5-58 210.6 0 28.1 28.1 43.6 65.5 43.6 105.3s-15.5 77.2-43.6 105.3c-28.2 28.2-65.6 43.6-105.3 43.6z m0-266.9c-30.2 0-60.5 11.5-83.5 34.5-46 46-46 121 0 167 22.3 22.3 52 34.6 83.5 34.6s61.2-12.3 83.5-34.6c22.3-22.3 34.6-52 34.6-83.5s-12.3-61.2-34.6-83.5c-23.1-23-53.3-34.5-83.5-34.5z" fill="#303030" p-id="12725"></path><path d="M882.282 895.046l14.496-14.496 21.778 21.779-14.495 14.495zM896.805 924.17l29.061-29.061 98.287 98.287-29.062 29.061z" fill="#303030" p-id="12726"></path></svg>