<?xml version="1.0" standalone="no"?><!DOCTYPE svg PUBLIC "-//W3C//DTD SVG 1.1//EN" "http://www.w3.org/Graphics/SVG/1.1/DTD/svg11.dtd"><svg t="1686494551242" class="icon" viewBox="0 0 1024 1024" version="1.1" xmlns="http://www.w3.org/2000/svg" p-id="5384" xmlns:xlink="http://www.w3.org/1999/xlink" width="200" height="200"><path d="M198.24 128.384h636.576c21.152 0 37.632 16.48 37.632 35.296 2.304 21.024-14.144 35.104-35.232 35.104H198.24c-21.216 0-37.536-16.352-37.536-35.104 0-18.816 16.32-35.296 37.536-35.296z m688.32 746.912c0 21.248-25.728 47.104-49.344 47.104H195.84c-23.584 0-49.344-25.856-49.344-47.104v-241.824h65.664v230.24h610.944v-230.24h63.424v241.824z m-32.864-310.08c-61.12 0-112.768-49.12-112.768-107.936 0 61.152-49.44 107.968-112.8 107.968-61.12 0-112.704-49.152-112.704-107.968 0 61.152-49.44 107.968-112.832 107.968-61.056 0-112.672-49.152-112.672-107.968 0 61.152-49.408 107.968-112.896 107.968-61.056 0-112.704-49.152-112.704-107.968l77.6-199.68h737.6l79.776 199.68c4.864 61.152-44.608 107.968-105.6 107.968z" fill="#000000" p-id="5385"></path></svg>